<svg width="16" height="12" viewBox="0 0 16 12" fill="none" xmlns="http://www.w3.org/2000/svg">
<path d="M14.5372 0.204547L14.289 0.294547L0.818996 5.14773C0.72354 5.17725 0.640577 5.2376 0.583109 5.31934C0.525641 5.40107 0.496917 5.49956 0.501439 5.59938C0.505962 5.69919 0.543476 5.79468 0.6081 5.87088C0.672725 5.94709 0.760808 5.99969 0.858542 6.02046L4.34536 6.975L4.99581 8.88409L5.64627 10.7932C5.68363 10.8868 5.74328 10.9698 5.82003 11.0351C5.89677 11.1004 5.9883 11.146 6.08666 11.1679C6.18502 11.1898 6.28725 11.1874 6.38445 11.1608C6.48166 11.1342 6.57091 11.0843 6.64445 11.0155L8.44581 9.31364L11.9831 11.7123C12.4154 12.0068 13.0317 11.7886 13.1422 11.3032L15.4849 0.95182C15.5995 0.439093 15.0595 0.0177291 14.5372 0.204547ZM12.8176 2.50227L6.73172 7.47682L6.44536 7.71137C6.38245 7.76124 6.34138 7.8336 6.33081 7.91318L6.26672 8.44228L6.09081 9.92864C6.09226 9.94672 6.08647 9.96464 6.0747 9.97845C6.06294 9.99226 6.04617 10.0008 6.02809 10.0023C6.01 10.0037 5.99209 9.99792 5.97828 9.98616C5.96447 9.9744 5.9559 9.95763 5.95445 9.93955L5.45945 8.45455L4.94809 6.93409C4.92646 6.86575 4.92933 6.792 4.95621 6.72555C4.98309 6.6591 5.0323 6.60409 5.09536 6.57L11.4281 2.94L12.6199 2.25818C12.7931 2.15727 12.9704 2.37682 12.8176 2.50227Z" fill="#090F1D"/>
</svg>
