<svg width="8" height="16" viewBox="0 0 8 16" fill="none" xmlns="http://www.w3.org/2000/svg">
<path d="M7.80172 6.57909L7.56035 8.66955C7.55033 8.76493 7.50564 8.85332 7.43475 8.91792C7.36386 8.98253 7.27171 9.01885 7.17581 9.02H4.99399L4.98308 15.2177C4.98382 15.2912 4.95562 15.362 4.90459 15.4148C4.85355 15.4676 4.78378 15.4982 4.71035 15.5H2.4999C2.46315 15.5 2.42677 15.4926 2.39295 15.4782C2.35913 15.4639 2.32856 15.4428 2.30309 15.4163C2.27761 15.3898 2.25776 15.3584 2.24471 15.3241C2.23167 15.2897 2.2257 15.2531 2.22717 15.2164V9.02H0.590806C0.53941 9.01947 0.488623 9.00881 0.441345 8.98865C0.394067 8.96849 0.351224 8.93921 0.315262 8.90249C0.279299 8.86576 0.250923 8.82232 0.231752 8.77463C0.212582 8.72694 0.202993 8.67594 0.203533 8.62455L0.195351 6.53409C0.19463 6.48252 0.204075 6.4313 0.223148 6.38338C0.242221 6.33546 0.270547 6.29176 0.30651 6.25478C0.342473 6.21781 0.385367 6.18828 0.432743 6.16788C0.480119 6.14748 0.531049 6.13662 0.582624 6.13591H2.22717V4.11773C2.22717 1.775 3.61808 0.5 5.65808 0.5H7.3299C7.38159 0.500533 7.43267 0.511267 7.4802 0.531584C7.52773 0.551901 7.57079 0.581402 7.60689 0.618395C7.643 0.655389 7.67145 0.699147 7.69061 0.747159C7.70976 0.795171 7.71925 0.846493 7.71853 0.898182V2.65727C7.71925 2.70896 7.70976 2.76028 7.69061 2.8083C7.67145 2.85631 7.643 2.90007 7.60689 2.93706C7.57079 2.97405 7.52773 3.00355 7.4802 3.02387C7.43267 3.04419 7.38159 3.05492 7.3299 3.05545H6.30444C5.19581 3.05545 4.98035 3.60091 4.98035 4.38909V6.13591H7.41717C7.47259 6.1366 7.52723 6.14902 7.57751 6.17234C7.62778 6.19566 7.67255 6.22936 7.70888 6.27122C7.7452 6.31308 7.77225 6.36216 7.78825 6.41522C7.80425 6.46828 7.80884 6.52413 7.80172 6.57909Z" fill="#090F1D"/>
</svg>
