<svg width="16" height="14" viewBox="0 0 16 14" fill="none" xmlns="http://www.w3.org/2000/svg">
<path d="M15.4713 2.46045C15.1153 2.99228 14.6819 3.46798 14.1854 3.87181C14.121 3.92303 14.069 3.98816 14.0334 4.06231C13.9977 4.13646 13.9793 4.21772 13.9795 4.3V4.35045C13.9738 5.42212 13.7771 6.4842 13.3986 7.48681C13.0087 8.53768 12.4296 9.50824 11.69 10.3505C10.7005 11.4784 9.42605 12.3196 7.99996 12.7859C7.06027 13.0909 6.07789 13.2437 5.08996 13.2386C3.52539 13.237 1.98902 12.8221 0.636325 12.0359C0.587889 12.0084 0.5498 11.9657 0.527884 11.9145C0.505967 11.8633 0.501429 11.8063 0.514961 11.7523C0.528676 11.6988 0.559901 11.6515 0.603652 11.6179C0.647402 11.5843 0.701154 11.5663 0.756325 11.5668H1.12996C2.31918 11.5666 3.4812 11.2109 4.46678 10.5455C3.87927 10.4494 3.32954 10.1935 2.87782 9.80578C2.4261 9.41804 2.08983 8.91344 1.90587 8.34727C1.89684 8.31936 1.89523 8.28958 1.9012 8.26085C1.90717 8.23213 1.9205 8.20545 1.9399 8.18344C1.95929 8.16144 1.98408 8.14485 2.01183 8.13532C2.03957 8.12579 2.06932 8.12364 2.09814 8.12909C2.27796 8.16328 2.46056 8.18063 2.6436 8.18091H2.71178C2.14234 7.91926 1.6609 7.49821 1.32573 6.9687C0.990547 6.43919 0.81598 5.82391 0.823143 5.19727C0.823532 5.16787 0.831518 5.13907 0.846325 5.11367C0.861132 5.08828 0.882256 5.06714 0.907646 5.05232C0.933036 5.03749 0.961829 5.02949 0.991226 5.02908C1.02062 5.02868 1.04963 5.03588 1.07542 5.05C1.30646 5.17902 1.55427 5.27539 1.81178 5.33636C1.30185 4.83223 0.97365 4.17311 0.878638 3.46237C0.783626 2.75164 0.927176 2.02946 1.28678 1.40909C1.30057 1.38623 1.31959 1.36696 1.34226 1.35286C1.36494 1.33876 1.39063 1.33023 1.41723 1.32796C1.44384 1.3257 1.4706 1.32977 1.49533 1.33985C1.52006 1.34992 1.54205 1.3657 1.55951 1.38591C2.27369 2.26876 3.15797 2.99914 4.15984 3.5337C5.16172 4.06825 6.26078 4.39608 7.39178 4.49772H7.40405C7.42081 4.49717 7.43729 4.49327 7.45251 4.48624C7.46774 4.47922 7.4814 4.46921 7.49269 4.45681C7.50355 4.44441 7.5117 4.42988 7.51663 4.41415C7.52156 4.39842 7.52316 4.38183 7.52133 4.36545C7.4791 3.96944 7.50493 3.56912 7.59769 3.18181C7.67897 2.84275 7.81731 2.51997 8.00678 2.22727C8.40441 1.60276 9.01014 1.13904 9.71678 0.918178C10.0482 0.814254 10.3935 0.760927 10.7409 0.759996C11.5286 0.759219 12.2895 1.04631 12.8804 1.56727C12.9557 1.63418 13.0524 1.67191 13.1531 1.67363C13.1863 1.67308 13.2193 1.6685 13.2513 1.66C13.8068 1.51946 14.3391 1.29946 14.8318 1.00681C14.8614 0.989681 14.8956 0.98188 14.9297 0.984427C14.9639 0.986974 14.9965 0.999751 15.0233 1.02109C15.05 1.04243 15.0698 1.07135 15.0799 1.10407C15.09 1.1368 15.09 1.17181 15.08 1.20454C14.9147 1.72065 14.622 2.18681 14.2291 2.56C14.5835 2.47534 14.9295 2.35849 15.2627 2.21091C15.2963 2.19594 15.3338 2.19233 15.3697 2.20063C15.4055 2.20893 15.4376 2.22868 15.4612 2.2569C15.4848 2.28512 15.4986 2.32025 15.5004 2.35698C15.5022 2.39372 15.492 2.43004 15.4713 2.46045Z" fill="#090F1D"/>
</svg>
