<svg width="16" height="16" viewBox="0 0 16 16" fill="none" xmlns="http://www.w3.org/2000/svg">
<path d="M4.64535 2.54545C4.64535 2.95001 4.52539 3.34547 4.30063 3.68185C4.07587 4.01822 3.75642 4.28039 3.38266 4.43521C3.0089 4.59002 2.59763 4.63053 2.20085 4.55161C1.80407 4.47268 1.43961 4.27787 1.15354 3.99181C0.867482 3.70575 0.672672 3.34128 0.593747 2.9445C0.514823 2.54772 0.555329 2.13645 0.710145 1.76269C0.864961 1.38894 1.12713 1.06948 1.46351 0.844721C1.79988 0.619964 2.19535 0.5 2.5999 0.5C3.14239 0.5 3.66266 0.715503 4.04625 1.0991C4.42985 1.4827 4.64535 2.00297 4.64535 2.54545ZM4.18172 5.95455V14.9914C4.18208 15.058 4.16926 15.1241 4.14399 15.1858C4.11873 15.2475 4.08152 15.3036 4.03451 15.3509C3.98749 15.3981 3.9316 15.4356 3.87004 15.4612C3.80849 15.4868 3.74248 15.5 3.67581 15.5H1.5199C1.45323 15.5002 1.38719 15.4872 1.32556 15.4618C1.26394 15.4363 1.20794 15.399 1.1608 15.3518C1.11366 15.3047 1.0763 15.2487 1.05087 15.1871C1.02544 15.1254 1.01245 15.0594 1.01263 14.9927V5.95455C1.01263 5.82001 1.06607 5.69098 1.1612 5.59585C1.25634 5.50072 1.38536 5.44727 1.5199 5.44727H3.67581C3.81011 5.44763 3.93879 5.50124 4.03362 5.59633C4.12846 5.69142 4.18172 5.82024 4.18172 5.95455ZM15.4508 10.6591V15.0336C15.451 15.0949 15.439 15.1557 15.4157 15.2123C15.3923 15.269 15.358 15.3205 15.3146 15.3638C15.2713 15.4071 15.2198 15.4415 15.1631 15.4649C15.1065 15.4882 15.0457 15.5002 14.9844 15.5H12.6663C12.605 15.5002 12.5442 15.4882 12.4876 15.4649C12.4309 15.4415 12.3794 15.4071 12.3361 15.3638C12.2928 15.3205 12.2584 15.269 12.235 15.2123C12.2117 15.1557 12.1997 15.0949 12.1999 15.0336V10.7941C12.1999 10.1614 12.3854 8.02318 10.5458 8.02318C9.12081 8.02318 8.83035 9.48636 8.77308 10.1436V15.0336C8.77309 15.1562 8.7249 15.2738 8.63891 15.361C8.55292 15.4483 8.43604 15.4982 8.31354 15.5H6.07444C6.01326 15.5 5.95269 15.4879 5.89618 15.4645C5.83968 15.441 5.78835 15.4066 5.74516 15.3633C5.70196 15.32 5.66774 15.2686 5.64445 15.212C5.62116 15.1554 5.60927 15.0948 5.60944 15.0336V5.915C5.60927 5.85382 5.62116 5.79321 5.64445 5.73663C5.66774 5.68006 5.70196 5.62864 5.74516 5.58531C5.78835 5.54199 5.83968 5.50762 5.89618 5.48416C5.95269 5.46071 6.01326 5.44864 6.07444 5.44864H8.31354C8.43722 5.44864 8.55584 5.49777 8.6433 5.58523C8.73076 5.67269 8.7799 5.79131 8.7799 5.915V6.70318C9.30899 5.90955 10.0931 5.29727 11.7663 5.29727C15.4726 5.29727 15.4508 8.75818 15.4508 10.6591Z" fill="#090F1D"/>
</svg>
