<svg width="58" height="58" viewBox="0 0 58 58" fill="none" xmlns="http://www.w3.org/2000/svg">
<path d="M0 0V58H58V0H0ZM31.0714 45.0536C31.0714 50.6995 27.7364 53.4519 22.9087 53.4519C18.5483 53.4519 16.0173 51.1941 14.733 48.4688L19.1711 45.7825C20.0268 47.3011 20.6767 48.5854 22.5449 48.5854C24.0985 48.5854 25.375 47.885 25.375 45.1597V26.9286H31.0714V45.0536ZM43.9337 53.3225C38.8729 53.3225 35.6027 51.0387 34.0064 47.885L38.4509 45.3125C39.6161 47.2208 41.1373 48.4921 43.8237 48.4921C46.0815 48.4921 47.393 47.4927 47.393 45.9352C47.393 44.0671 46.0427 43.4055 43.5505 42.3102L42.1885 41.725C38.2554 40.0524 35.648 37.9499 35.648 33.5105C35.648 29.4233 38.7616 26.4379 43.6282 26.4379C47.0939 26.4379 49.5835 27.515 51.3766 30.6688L47.125 33.4018C46.1903 31.7278 45.183 31.0714 43.6217 31.0714C42.0254 31.0714 41.013 32.0838 41.013 33.4018C41.013 35.0369 42.0254 35.6985 44.3609 36.7109L45.7229 37.2948C50.3564 39.2808 52.9651 41.3082 52.9651 45.8601C52.9664 50.7668 49.1123 53.3225 43.9337 53.3225Z" fill="#FF2424"/>
</svg>
