<svg width="84" height="58" viewBox="0 0 84 58" fill="none" xmlns="http://www.w3.org/2000/svg">
<path d="M82.9438 25.4772C82.4057 24.8955 78.5437 20.1566 76.4618 17.6027C75.3544 16.2449 74.48 15.1723 74.1125 14.7274L74.083 14.6911L74.0501 14.6565C73.1937 13.6959 71.9764 12.5952 70.1488 12.5952C69.8516 12.5991 69.5551 12.6233 69.2612 12.6677C69.2005 12.676 69.1382 12.6859 69.0726 12.6924C68.6706 12.7369 67.4221 12.9396 64.4559 13.4306C62.1591 13.808 58.6958 14.3814 58.1708 14.4308L58.0543 14.4407L57.9411 14.4621C56.3005 14.7554 55.2144 15.487 54.7321 16.6355C54.4778 17.2418 54.2038 18.4727 55.2144 19.9078C55.4654 20.2736 56.3349 21.4831 57.8295 23.5609C58.8237 24.9449 59.941 26.4971 60.9056 27.8449L42.6392 32.1307L24.7173 2.6446L24.6845 2.58858L24.6467 2.5342L24.5745 2.4271C23.8412 1.34619 22.929 0 20.2942 0C20.1088 0 19.9152 1.01486e-07 19.6987 0.0181251C18.944 0.0593183 16.1845 0.276818 12.9903 0.530568C9.46462 0.809034 4.63961 1.18966 4.0129 1.20614H3.89314L3.76353 1.21932C2.26402 1.36597 1.1763 1.97727 0.531549 3.03182C-0.543045 4.79324 0.298583 6.77051 0.574204 7.41972C1.12709 8.73295 6.16209 19.3937 10.6032 28.8039C13.5563 35.0554 16.6045 41.5194 16.8539 42.0928C17.2924 43.164 18.0432 44.0769 19.0076 44.7118C19.9721 45.3467 21.1051 45.6738 22.258 45.6503C22.8021 45.6478 23.3444 45.5871 23.8757 45.469H23.9101L23.9429 45.4608C26.2168 44.9039 33.4305 43.065 38.5771 41.7386C38.8888 42.2856 39.2169 42.864 39.5614 43.4588C43.1593 49.8026 45.7793 54.3915 46.6423 55.563C47.0852 56.1875 48.3977 58 50.8685 58C51.7642 58 52.5845 57.7693 53.4508 57.5238L53.7018 57.453H53.7215C55.449 56.9586 78.4437 48.8584 79.6216 48.3328L79.6577 48.3163C80.5502 47.9192 81.8988 47.3194 82.3122 45.7788C82.5829 44.7704 82.3417 43.7472 81.5936 42.7371L81.5707 42.7074C81.4312 42.5262 80.9144 41.849 80.2139 40.9114C78.716 38.9226 76.2961 35.7095 74.1699 32.9134C77.0196 32.1719 80.5354 31.2475 81.2868 31.0102C83.1686 30.4451 83.7379 29.2488 83.9118 28.5831C84.0414 28.0641 84.2104 26.7377 82.9438 25.4772ZM30.4446 35.0653C27.5227 35.7524 25.4867 36.2319 24.2284 36.5318C23.1341 34.3337 20.9898 29.9985 18.8964 25.7672C14.0173 15.894 11.4973 10.8107 10.1717 8.15295L11.5088 8.03761C13.6974 7.84812 16.6947 7.58943 18.3632 7.44938C21.1129 12.1059 30.5562 28.0954 34.1622 34.192L30.4446 35.0653ZM59.6736 46.0457C55.7017 47.3639 53.5492 48.084 52.386 48.4745C51.3524 46.7707 49.0786 42.9513 47.059 39.5455L66.0407 34.688C66.861 35.8101 68.4311 37.9373 71.5302 42.0912C68.5656 43.0864 63.6225 44.7309 59.6736 46.0457ZM68.8396 26.0044L64.9415 20.8091C67.1842 20.4153 68.4754 20.188 69.2317 20.0512L73.1593 24.9449C71.814 25.2728 70.2489 25.6568 68.8396 26.0044Z" fill="#FF2424"/>
</svg>
