<svg width="80" height="68" viewBox="0 0 80 68" fill="none" xmlns="http://www.w3.org/2000/svg">
<path d="M40 6.375C40 4.68425 40.7902 3.06274 42.1967 1.86719C43.6032 0.67165 45.5109 0 47.5 0C49.4891 0 51.3968 0.67165 52.8033 1.86719C54.2098 3.06274 55 4.68425 55 6.375V8.5C55 9.62717 55.5268 10.7082 56.4645 11.5052C57.4022 12.3022 58.6739 12.75 60 12.75H75C76.3261 12.75 77.5979 13.1978 78.5355 13.9948C79.4732 14.7918 80 15.8728 80 17V29.75C80 30.8772 79.4732 31.9582 78.5355 32.7552C77.5979 33.5522 76.3261 34 75 34H72.5C70.5109 34 68.6032 34.6716 67.1967 35.8672C65.7902 37.0627 65 38.6842 65 40.375C65 42.0658 65.7902 43.6873 67.1967 44.8828C68.6032 46.0784 70.5109 46.75 72.5 46.75H75C76.3261 46.75 77.5979 47.1978 78.5355 47.9948C79.4732 48.7918 80 49.8728 80 51V63.75C80 64.8772 79.4732 65.9582 78.5355 66.7552C77.5979 67.5522 76.3261 68 75 68H60C58.6739 68 57.4022 67.5522 56.4645 66.7552C55.5268 65.9582 55 64.8772 55 63.75V61.625C55 59.9342 54.2098 58.3127 52.8033 57.1172C51.3968 55.9217 49.4891 55.25 47.5 55.25C45.5109 55.25 43.6032 55.9217 42.1967 57.1172C40.7902 58.3127 40 59.9342 40 61.625V63.75C40 64.8772 39.4732 65.9582 38.5355 66.7552C37.5979 67.5522 36.3261 68 35 68H20C18.6739 68 17.4021 67.5522 16.4645 66.7552C15.5268 65.9582 15 64.8772 15 63.75V51C15 49.8728 14.4732 48.7918 13.5355 47.9948C12.5979 47.1978 11.3261 46.75 10 46.75H7.5C5.51088 46.75 3.60322 46.0784 2.1967 44.8828C0.790177 43.6873 0 42.0658 0 40.375C0 38.6842 0.790177 37.0627 2.1967 35.8672C3.60322 34.6716 5.51088 34 7.5 34H10C11.3261 34 12.5979 33.5522 13.5355 32.7552C14.4732 31.9582 15 30.8772 15 29.75V17C15 15.8728 15.5268 14.7918 16.4645 13.9948C17.4021 13.1978 18.6739 12.75 20 12.75H35C36.3261 12.75 37.5979 12.3022 38.5355 11.5052C39.4732 10.7082 40 9.62717 40 8.5V6.375Z" fill="#FF4343"/>
</svg>
