<svg width="59" height="59" viewBox="0 0 59 59" fill="none" xmlns="http://www.w3.org/2000/svg">
<path d="M29.8951 31.515L25.5754 44.1183H25.5623L22.2172 53.7453C22.4542 53.8112 22.6781 53.8638 22.9152 53.9297H22.9547C25.0813 54.4968 27.2727 54.7845 29.4737 54.7857C30.5713 54.7939 31.6679 54.7146 32.7529 54.5487C34.2049 54.3666 35.6374 54.0537 37.033 53.6136C37.3755 53.5083 37.7179 53.3897 38.0603 53.2712C37.6915 52.481 36.9013 50.7295 36.8618 50.6504L29.8951 31.515ZM6.42679 19.5569C5.10982 22.5333 4.21429 26.1944 4.21429 29.5C4.21429 30.3297 4.2538 31.1594 4.33281 31.9759C5.24152 41.3527 11.2996 49.2281 19.6228 52.7708C19.9652 52.9156 20.3208 53.0605 20.6763 53.1922L8.42857 19.5701C7.375 19.5306 7.17746 19.5964 6.42679 19.5569Z" fill="#FF2424"/>
<path d="M52.4415 18.8853C51.8749 17.6655 51.2098 16.4939 50.4529 15.3821C50.2422 15.0661 50.0051 14.75 49.7812 14.4339C46.9276 10.6039 43.0525 7.65535 38.6002 5.92634C35.6963 4.79045 32.605 4.20971 29.4868 4.21429C25.7095 4.21437 21.9804 5.06292 18.5749 6.69728C15.1694 8.33164 12.1745 10.7101 9.81138 13.6569C8.95532 14.7181 8.18468 15.8454 7.5067 17.0283C9.37679 17.0415 11.6946 17.0415 11.958 17.0415C14.3417 17.0415 18.0161 16.7518 18.0161 16.7518C19.254 16.6728 19.3857 18.477 18.1609 18.6219C18.1609 18.6219 16.923 18.7667 15.5533 18.8326L23.8371 43.4598L28.8152 28.5386L25.2857 18.8458C24.0478 18.7799 22.902 18.635 22.902 18.635C21.6641 18.5692 21.8221 16.6859 23.0337 16.765C23.0337 16.765 26.7871 17.0547 29.0259 17.0547C31.4096 17.0547 35.0839 16.765 35.0839 16.765C36.3087 16.6859 36.4667 18.4902 35.2288 18.635C35.2288 18.635 34.004 18.7799 32.6344 18.8458L40.8391 43.2886L43.1174 35.7029C44.2632 32.7529 44.8426 30.3165 44.8426 28.3674C44.8426 25.5623 43.8286 23.6132 42.9594 22.0987C41.8136 20.2154 40.7337 18.635 40.7337 16.7781C40.7337 14.6842 42.3141 12.735 44.5529 12.735H44.8426C48.2931 12.6429 49.4257 16.067 49.5705 18.398V18.477C49.6232 19.4252 49.5837 20.1232 49.5837 20.9529C49.5837 23.2444 49.1491 25.8388 47.8585 29.0917L42.7223 43.9471L39.7855 52.5996C40.0225 52.4942 40.2464 52.3888 40.4835 52.2703C47.9507 48.6618 53.3897 41.4712 54.5355 32.9504C54.7054 31.817 54.789 30.6724 54.7857 29.5263C54.7907 25.8507 53.9906 22.2186 52.4415 18.8853Z" fill="#FF2424"/>
<path d="M29.5 2.10714C35.8199 2.1104 41.9444 4.2982 46.8359 8.29992C51.7274 12.3016 55.0853 17.8712 56.3406 24.0652C57.596 30.2591 56.6716 36.6966 53.7241 42.2871C50.7767 47.8776 45.9873 52.2773 40.1674 54.7409C33.4731 57.5701 25.9291 57.6241 19.195 54.891C12.4608 52.158 7.08824 46.8617 4.25906 40.1674C1.42989 33.4731 1.3759 25.9291 4.10896 19.195C6.84203 12.4608 12.1383 7.08824 18.8326 4.25906C22.2073 2.83108 25.8356 2.09915 29.5 2.10714ZM29.5 0C13.2078 0 0 13.2078 0 29.5C0 45.7922 13.2078 59 29.5 59C45.7922 59 59 45.7922 59 29.5C59 13.2078 45.7922 0 29.5 0Z" fill="#FF2424"/>
</svg>
