<svg width="66" height="59" viewBox="0 0 66 59" fill="none" xmlns="http://www.w3.org/2000/svg">
<path d="M54.2635 19.1227C53.5604 18.8819 52.8523 18.6577 52.1392 18.45C52.2575 17.9675 52.3665 17.4823 52.4664 16.9943C54.0751 9.15065 53.0233 2.8316 49.4333 0.751442C45.996 -1.24463 40.3587 0.835529 34.6719 5.80916C34.1128 6.29991 33.5651 6.80536 33.0289 7.32551C32.6714 6.97997 32.3047 6.64178 31.9289 6.31094C25.9685 0.992678 19.9944 -1.24738 16.4086 0.839666C12.9712 2.83987 11.9496 8.77983 13.3974 16.2141C13.5423 16.9493 13.705 17.6813 13.8855 18.41C13.0638 18.6436 12.2491 18.901 11.4423 19.182C4.46306 21.6288 0 25.4652 0 29.4436C0 33.5542 4.7903 37.676 12.0679 40.1752C12.6582 40.3764 13.254 40.5635 13.8553 40.7362C13.6601 41.5165 13.4873 42.3054 13.3369 43.1031C11.962 50.4092 13.0345 56.2085 16.4649 58.1963C20.0082 60.2489 25.952 58.1398 31.7461 53.0531C32.2044 52.6506 32.6627 52.2256 33.121 51.778C33.7003 52.3395 34.2961 52.8845 34.9084 53.4129C40.5182 58.2625 46.0578 60.2213 49.4828 58.228C53.0233 56.1686 54.1741 49.9377 52.6796 42.3574C52.565 41.7784 52.433 41.1875 52.2836 40.5846C52.7016 40.4605 53.1108 40.3323 53.5114 40.2C61.0736 37.6815 66 33.6094 66 29.4477C65.9973 25.45 61.3912 21.5889 54.2635 19.1227ZM36.5267 7.94584C41.3982 3.68489 45.952 2.00312 48.0281 3.20517C50.2377 4.4858 51.097 9.64966 49.7083 16.4222C49.6166 16.8634 49.5176 17.3031 49.4113 17.7415C46.5042 17.0785 43.5562 16.6106 40.5869 16.3409C38.8869 13.8856 37.0232 11.5483 35.0088 9.34502C35.5019 8.8653 36.0098 8.3989 36.5267 7.94584ZM19.4871 32.8429C20.0838 34.0009 20.7076 35.1446 21.3584 36.274C22.0211 37.4265 22.7118 38.5619 23.4304 39.6803C21.3873 39.4576 19.3571 39.1295 17.3477 38.6974C17.9306 36.8061 18.6483 34.8418 19.4871 32.8429ZM19.4871 26.1806C18.6621 24.2246 17.9636 22.3002 17.3903 20.4419C19.2739 20.0187 21.2814 19.6727 23.374 19.4108C22.6728 20.5081 21.9982 21.6215 21.3501 22.7509C20.7021 23.8804 20.0797 25.0236 19.4829 26.1806H19.4871ZM20.9858 29.5125C21.8547 27.6956 22.7906 25.9137 23.7934 24.1667C24.7953 22.4206 25.8618 20.7144 26.9929 19.0483C28.9563 18.8994 30.9692 18.8208 33.0028 18.8208C35.0363 18.8208 37.0616 18.8994 39.0236 19.0497C40.1428 20.7121 41.2029 22.4123 42.2039 24.1501C43.2048 25.8879 44.1531 27.6616 45.0486 29.4711C44.165 31.2944 43.219 33.0837 42.2107 34.839C41.2107 36.5851 40.1566 38.2963 39.0484 39.9725C37.0891 40.1104 35.061 40.1862 32.9986 40.1862C30.9362 40.1862 28.9467 40.1214 27.0231 39.996C25.8838 38.3243 24.8086 36.6108 23.7975 34.8556C22.7865 33.1003 21.8478 31.3192 20.9816 29.5125H20.9858ZM44.6513 36.2547C45.3158 35.0986 45.9538 33.9274 46.5652 32.7409C47.4033 34.6461 48.1431 36.5933 48.7816 38.5747C46.7486 39.0337 44.693 39.3857 42.6232 39.6293C43.3217 38.5182 43.9977 37.3934 44.6513 36.2547ZM46.5377 26.182C45.9291 25.0195 45.2961 23.8707 44.6389 22.7358C43.9973 21.6164 43.3286 20.5109 42.6329 19.4191C44.7379 19.6865 46.7577 20.0422 48.651 20.4764C48.0423 22.4125 47.3369 24.3168 46.5377 26.182ZM33.0303 11.37C34.4032 12.8741 35.6996 14.4467 36.9145 16.0818C34.3158 15.9577 31.7153 15.9577 29.113 16.0818C30.3959 14.3807 31.7089 12.8023 33.0303 11.37ZM17.8275 3.28926C20.0357 2.0045 24.9181 3.84066 30.0645 8.42693C30.3931 8.72055 30.7245 9.02796 31.0545 9.34639C29.0297 11.5494 27.1529 13.8847 25.4364 16.3368C22.4738 16.6044 19.5316 17.0649 16.6286 17.7153C16.4608 17.0389 16.3096 16.3579 16.1748 15.6723C14.9305 9.29953 15.7541 4.49545 17.8275 3.28926ZM14.6088 38.0068C14.0588 37.8497 13.5157 37.6792 12.9795 37.4954C9.76209 36.3926 7.10433 34.9534 5.27978 33.3861C3.64635 31.9814 2.81863 30.5794 2.81863 29.4436C2.81863 27.0298 6.40173 23.9502 12.3772 21.8618C13.128 21.5999 13.8851 21.3605 14.6486 21.1436C15.5361 24.003 16.6109 26.8006 17.866 29.518C16.5959 32.273 15.5078 35.1087 14.6088 38.0068ZM29.8885 50.9192C27.327 53.1689 24.7613 54.7639 22.4996 55.5675C20.4674 56.2885 18.8491 56.3092 17.8715 55.7426C15.7898 54.5364 14.9236 49.8785 16.1047 43.6311C16.2449 42.8959 16.4054 42.1607 16.5859 41.4255C19.5181 42.0587 22.4898 42.4912 25.4804 42.7199C27.2136 45.1848 29.1059 47.5333 31.1452 49.7503C30.7355 50.1542 30.3161 50.5429 29.8885 50.9192ZM33.1086 47.7183C31.7722 46.2695 30.4385 44.6663 29.1378 42.9432C30.4018 42.9928 31.6888 43.0177 32.9986 43.0177C34.3433 43.0177 35.6743 42.9887 36.986 42.9294C35.7755 44.5907 34.4814 46.1891 33.1086 47.7183ZM50.2294 51.6595C49.8362 53.7879 49.0456 55.2077 48.068 55.7757C45.9877 56.986 41.5398 55.4131 36.744 51.2652C36.194 50.791 35.644 50.2824 35.0844 49.7489C37.084 47.5233 38.9319 45.1653 40.6158 42.691C43.6231 42.4355 46.6092 41.9726 49.5529 41.3056C49.6877 41.8514 49.8068 42.3863 49.9104 42.9101C50.5718 46.2599 50.6666 49.2898 50.2294 51.6595ZM52.6218 37.5105C52.2616 37.6305 51.8903 37.7463 51.5136 37.8593C50.5905 34.9864 49.4738 32.1798 48.1711 29.4587C49.4249 26.774 50.498 24.008 51.383 21.1794C52.0581 21.3766 52.7139 21.5833 53.345 21.8025C59.4525 23.9144 63.1786 27.0408 63.1786 29.4436C63.1786 32.0076 59.1542 35.3353 52.6218 37.5105Z" fill="#FF4343"/>
<path d="M32.9986 35.3656C34.1688 35.3694 35.3137 35.025 36.2885 34.376C37.2633 33.727 38.0241 32.8026 38.4745 31.7198C38.925 30.6371 39.0448 29.4446 38.8189 28.2935C38.5929 27.1424 38.0314 26.0844 37.2053 25.2535C36.3792 24.4226 35.3258 23.8561 34.1784 23.6258C33.031 23.3956 31.8413 23.5118 30.7598 23.9599C29.6784 24.4079 28.7539 25.1677 28.1034 26.1429C27.4529 27.1181 27.1056 28.2649 27.1056 29.438C27.104 30.2153 27.2552 30.9853 27.5505 31.7039C27.8458 32.4225 28.2796 33.0758 28.8268 33.6263C29.3741 34.1768 30.0243 34.6137 30.7401 34.9122C31.4559 35.2106 32.2234 35.3647 32.9986 35.3656Z" fill="#FF4343"/>
</svg>
